<svg xmlns="http://www.w3.org/2000/svg" viewBox="0 0 760 330" role="img" aria-labelledby="t">
<title id="t">Nine release gates feeding a single barrier before any mainnet economy</title>
<defs>
<marker id="arr" viewBox="0 0 10 10" refX="8" refY="5" markerWidth="7" markerHeight="7" orient="auto-start-reverse"><path d="M0,0 L10,5 L0,10 z" fill="#A3AAB8"/></marker>
<marker id="arrB" viewBox="0 0 10 10" refX="8" refY="5" markerWidth="7" markerHeight="7" orient="auto-start-reverse"><path d="M0,0 L10,5 L0,10 z" fill="#246BFE"/></marker>
</defs>
<rect width="760" height="330" rx="18" fill="#F8FAF7"/>
<text x="40" y="44" font-family="Sora, 'Plus Jakarta Sans', system-ui, sans-serif" font-size="17" font-weight="800" fill="#111827">Release gates before any real-value layer</text><rect x="40" y="72" width="164" height="46" rx="12" fill="#FFFFFF" stroke="#246BFE" stroke-width="1.6"/><text x="122" y="100" text-anchor="middle" font-family="Sora, 'Plus Jakarta Sans', system-ui, sans-serif" font-size="12.5" font-weight="600" fill="#111827">Verification</text><path d="M 204 95 L 590 160" fill="none" stroke="#D0D5DD" stroke-width="1.2"/><rect x="220" y="72" width="164" height="46" rx="12" fill="#FFFFFF" stroke="#246BFE" stroke-width="1.6"/><text x="302" y="100" text-anchor="middle" font-family="Sora, 'Plus Jakarta Sans', system-ui, sans-serif" font-size="12.5" font-weight="600" fill="#111827">Abuse resistance</text><path d="M 384 95 L 590 160" fill="none" stroke="#D0D5DD" stroke-width="1.2"/><rect x="400" y="72" width="164" height="46" rx="12" fill="#FFFFFF" stroke="#246BFE" stroke-width="1.6"/><text x="482" y="100" text-anchor="middle" font-family="Sora, 'Plus Jakarta Sans', system-ui, sans-serif" font-size="12.5" font-weight="600" fill="#111827">Privacy</text><path d="M 564 95 L 590 160" fill="none" stroke="#D0D5DD" stroke-width="1.2"/><rect x="40" y="134" width="164" height="46" rx="12" fill="#FFFFFF" stroke="#18C987" stroke-width="1.6"/><text x="122" y="162" text-anchor="middle" font-family="Sora, 'Plus Jakarta Sans', system-ui, sans-serif" font-size="12.5" font-weight="600" fill="#111827">Density</text><path d="M 204 157 L 590 160" fill="none" stroke="#D0D5DD" stroke-width="1.2"/><rect x="220" y="134" width="164" height="46" rx="12" fill="#FFFFFF" stroke="#18C987" stroke-width="1.6"/><text x="302" y="162" text-anchor="middle" font-family="Sora, 'Plus Jakarta Sans', system-ui, sans-serif" font-size="12.5" font-weight="600" fill="#111827">Retention</text><path d="M 384 157 L 590 160" fill="none" stroke="#D0D5DD" stroke-width="1.2"/><rect x="400" y="134" width="164" height="46" rx="12" fill="#FFFFFF" stroke="#18C987" stroke-width="1.6"/><text x="482" y="162" text-anchor="middle" font-family="Sora, 'Plus Jakarta Sans', system-ui, sans-serif" font-size="12.5" font-weight="600" fill="#111827">Partner demand</text><path d="M 564 157 L 590 160" fill="none" stroke="#D0D5DD" stroke-width="1.2"/><rect x="40" y="196" width="164" height="46" rx="12" fill="#FFFFFF" stroke="#7657FF" stroke-width="1.6"/><text x="122" y="224" text-anchor="middle" font-family="Sora, 'Plus Jakarta Sans', system-ui, sans-serif" font-size="12.5" font-weight="600" fill="#111827">Independent audit</text><path d="M 204 219 L 590 160" fill="none" stroke="#D0D5DD" stroke-width="1.2"/><rect x="220" y="196" width="164" height="46" rx="12" fill="#FFFFFF" stroke="#7657FF" stroke-width="1.6"/><text x="302" y="224" text-anchor="middle" font-family="Sora, 'Plus Jakarta Sans', system-ui, sans-serif" font-size="12.5" font-weight="600" fill="#111827">Legal review</text><path d="M 384 219 L 590 160" fill="none" stroke="#D0D5DD" stroke-width="1.2"/><rect x="400" y="196" width="164" height="46" rx="12" fill="#FFFFFF" stroke="#7657FF" stroke-width="1.6"/><text x="482" y="224" text-anchor="middle" font-family="Sora, 'Plus Jakarta Sans', system-ui, sans-serif" font-size="12.5" font-weight="600" fill="#111827">Operations</text><path d="M 564 219 L 590 160" fill="none" stroke="#D0D5DD" stroke-width="1.2"/><rect x="590" y="96" width="16" height="128" rx="8" fill="#FF6B4A"/><rect x="626" y="118" width="110" height="84" rx="14" fill="#F1F6F3" stroke="#A3AAB8" stroke-width="1.6" stroke-dasharray="3 5"/>
<text x="681" y="154" text-anchor="middle" font-family="Sora, 'Plus Jakarta Sans', system-ui, sans-serif" font-size="15" font-weight="700" fill="#667085">Mainnet</text>
<text x="681" y="175" text-anchor="middle" font-family="Sora, 'Plus Jakarta Sans', system-ui, sans-serif" font-size="11" fill="#667085">economy · assets</text><text x="598" y="248" text-anchor="middle" font-family="Sora, 'Plus Jakarta Sans', system-ui, sans-serif" font-size="10.5" font-weight="700" fill="#FF6B4A">ALL GATES</text><text x="598" y="264" text-anchor="middle" font-family="Sora, 'Plus Jakarta Sans', system-ui, sans-serif" font-size="10.5" font-weight="700" fill="#FF6B4A">MUST PASS</text><text x="40" y="300" font-family="Sora, 'Plus Jakarta Sans', system-ui, sans-serif" font-size="11.5" fill="#667085">Any single failing gate blocks the layer behind it. No dates are attached to any gate.</text>
</svg>