<svg xmlns="http://www.w3.org/2000/svg" viewBox="0 0 760 330" role="img" aria-labelledby="t">
<title id="t">Territory lifecycle from unexplored to fortified, with decay and a dashed future challenged state</title>
<defs>
<marker id="arr" viewBox="0 0 10 10" refX="8" refY="5" markerWidth="7" markerHeight="7" orient="auto-start-reverse"><path d="M0,0 L10,5 L0,10 z" fill="#A3AAB8"/></marker>
<marker id="arrB" viewBox="0 0 10 10" refX="8" refY="5" markerWidth="7" markerHeight="7" orient="auto-start-reverse"><path d="M0,0 L10,5 L0,10 z" fill="#246BFE"/></marker>
</defs>
<rect width="760" height="330" rx="18" fill="#F8FAF7"/>
<text x="40" y="46" font-family="Sora, 'Plus Jakarta Sans', system-ui, sans-serif" font-size="17" font-weight="800" fill="#111827">Zone lifecycle</text><polygon points="142.9,101.0 142.9,139.0 110.0,158.0 77.1,139.0 77.1,101.0 110.0,82.0" fill="#FFFFFF" stroke="#D0D5DD" stroke-width="2.5"/><text x="110" y="182" text-anchor="middle" font-family="Sora, 'Plus Jakarta Sans', system-ui, sans-serif" font-size="12.5" font-weight="700" fill="#111827">Unexplored</text><polygon points="282.9,101.0 282.9,139.0 250.0,158.0 217.1,139.0 217.1,101.0 250.0,82.0" fill="#F1F6F3" stroke="#A3AAB8" stroke-width="2.5"/><text x="250" y="182" text-anchor="middle" font-family="Sora, 'Plus Jakarta Sans', system-ui, sans-serif" font-size="12.5" font-weight="700" fill="#111827">Explored</text><polygon points="422.9,101.0 422.9,139.0 390.0,158.0 357.1,139.0 357.1,101.0 390.0,82.0" fill="#E2F8EF" stroke="#18C987" stroke-width="2.5"/><text x="390" y="182" text-anchor="middle" font-family="Sora, 'Plus Jakarta Sans', system-ui, sans-serif" font-size="12.5" font-weight="700" fill="#111827">Captured</text><polygon points="562.9,101.0 562.9,139.0 530.0,158.0 497.1,139.0 497.1,101.0 530.0,82.0" fill="#E7F0FF" stroke="#246BFE" stroke-width="2.5"/><text x="530" y="182" text-anchor="middle" font-family="Sora, 'Plus Jakarta Sans', system-ui, sans-serif" font-size="12.5" font-weight="700" fill="#111827">Stable</text><path d="M 122 120 L 168 120" fill="none" stroke="#A3AAB8" stroke-width="2" marker-end="url(#arr)"/><path d="M 262 120 L 308 120" fill="none" stroke="#A3AAB8" stroke-width="2" marker-end="url(#arr)"/><path d="M 402 120 L 448 120" fill="none" stroke="#A3AAB8" stroke-width="2" marker-end="url(#arr)"/><polygon points="702.9,101.0 702.9,139.0 670.0,158.0 637.1,139.0 637.1,101.0 670.0,82.0" fill="#FDECEC" stroke="#FF6B4A" stroke-width="2.5"/><text x="670" y="182" text-anchor="middle" font-family="Sora, 'Plus Jakarta Sans', system-ui, sans-serif" font-size="12.5" font-weight="700" fill="#111827">At risk</text><path d="M 545 106 C 590 86 610 86 630 100" fill="none" stroke="#FF6B4A" stroke-width="2" marker-end="url(#arr)"/><text x="588" y="78" text-anchor="middle" font-family="Sora, 'Plus Jakarta Sans', system-ui, sans-serif" font-size="10.5" fill="#FF6B4A">decay (neglect)</text><path d="M 632 142 C 610 158 588 158 546 138" fill="none" stroke="#18C987" stroke-width="2" marker-end="url(#arr)"/><text x="590" y="172" text-anchor="middle" font-family="Sora, 'Plus Jakarta Sans', system-ui, sans-serif" font-size="10.5" fill="#0A8F60">revisit / fortify</text><polygon points="559.4,233.0 559.4,267.0 530.0,284.0 500.6,267.0 500.6,233.0 530.0,216.0" fill="#F4F1FF" stroke="#7657FF" stroke-width="2.5"/><text x="530" y="304" text-anchor="middle" font-family="Sora, 'Plus Jakarta Sans', system-ui, sans-serif" font-size="12" font-weight="700" fill="#111827">Fortified</text><path d="M 530 158 L 530 214" fill="none" stroke="#7657FF" stroke-width="2" marker-end="url(#arr)"/><rect x="600" y="226" width="140" height="52" rx="14" fill="#FFFFFF" stroke="#A3AAB8" stroke-width="1.6" stroke-dasharray="6 5"/>
<text x="670" y="246" text-anchor="middle" font-family="Sora, 'Plus Jakarta Sans', system-ui, sans-serif" font-size="15" font-weight="700" fill="#667085">Challenged</text>
<text x="670" y="267" text-anchor="middle" font-family="Sora, 'Plus Jakarta Sans', system-ui, sans-serif" font-size="11" fill="#667085">future multiplayer</text><text x="40" y="300" font-family="Sora, 'Plus Jakarta Sans', system-ui, sans-serif" font-size="11.5" fill="#667085">Solid states exist in today's on-device simulation. Dashed “Challenged” is a future concept.</text>
</svg>