<svg xmlns="http://www.w3.org/2000/svg" viewBox="0 0 760 320" role="img" aria-labelledby="t">
<title id="t">Zone Deed concept: a digital record linked to a map zone, with the link to real-world land crossed out</title>
<defs>
<marker id="arr" viewBox="0 0 10 10" refX="8" refY="5" markerWidth="7" markerHeight="7" orient="auto-start-reverse"><path d="M0,0 L10,5 L0,10 z" fill="#A3AAB8"/></marker>
<marker id="arrB" viewBox="0 0 10 10" refX="8" refY="5" markerWidth="7" markerHeight="7" orient="auto-start-reverse"><path d="M0,0 L10,5 L0,10 z" fill="#246BFE"/></marker>
</defs>
<rect width="760" height="320" rx="18" fill="#F8FAF7"/>
<text x="40" y="46" font-family="Sora, 'Plus Jakarta Sans', system-ui, sans-serif" font-size="17" font-weight="800" fill="#111827">Zone Deed concept</text><polygon points="202.0,120.0 202.0,180.0 150.0,210.0 98.0,180.0 98.0,120.0 150.0,90.0" fill="#E2F8EF" stroke="#18C987" stroke-width="3"/><text x="150" y="238" text-anchor="middle" font-family="Sora, 'Plus Jakarta Sans', system-ui, sans-serif" font-size="12.5" font-weight="700" fill="#111827">A map zone</text><rect x="300" y="84" width="180" height="140" rx="16" fill="#FFFFFF" stroke="#7657FF" stroke-width="2"/><polygon points="410.8,116.0 410.8,140.0 390.0,152.0 369.2,140.0 369.2,116.0 390.0,104.0" fill="#F4F1FF" stroke="#7657FF" stroke-width="2"/><text x="390" y="176" text-anchor="middle" font-family="Sora, 'Plus Jakarta Sans', system-ui, sans-serif" font-size="13" font-weight="700" fill="#111827">Zone Deed</text><text x="390" y="196" text-anchor="middle" font-family="Sora, 'Plus Jakarta Sans', system-ui, sans-serif" font-size="10.5" fill="#667085">digital record · provenance</text><path d="M 214 150 L 296 150" fill="none" stroke="#7657FF" stroke-width="2" marker-end="url(#arr)"/><rect x="300" y="240" width="173.60000000000002" height="22" rx="11" fill="#E7F0FF"/>
<text x="386.8" y="255" text-anchor="middle" font-family="Sora, 'Plus Jakarta Sans', system-ui, sans-serif" font-size="10.5" font-weight="700" fill="#1D5BD6">LOCAL PREVIEW · SHOWROOM</text><rect x="485" y="240" width="180" height="22" rx="11" fill="#FFF3E0"/>
<text x="575" y="255" text-anchor="middle" font-family="Sora, 'Plus Jakarta Sans', system-ui, sans-serif" font-size="10.5" font-weight="700" fill="#B07908">EXPERIMENTAL TESTNET (V1)</text><rect x="560" y="92" width="160" height="120" rx="16" fill="#FDECEC" stroke="#FF6B4A" stroke-width="2"/><text x="640" y="132" text-anchor="middle" font-family="Sora, 'Plus Jakarta Sans', system-ui, sans-serif" font-size="13" font-weight="700" fill="#111827">Real-world land</text><text x="640" y="152" text-anchor="middle" font-family="Sora, 'Plus Jakarta Sans', system-ui, sans-serif" font-size="10.5" fill="#667085">title · property · rights</text><path d="M 484 150 L 556 150" fill="none" stroke="#FF6B4A" stroke-width="2.5"/><line x1="508" y1="132" x2="534" y2="168" stroke="#FF6B4A" stroke-width="3.5"/><line x1="534" y1="132" x2="508" y2="168" stroke="#FF6B4A" stroke-width="3.5"/><text x="520" y="188" text-anchor="middle" font-family="Sora, 'Plus Jakarta Sans', system-ui, sans-serif" font-size="10.5" font-weight="700" fill="#FF6B4A">no connection</text><text x="40" y="296" font-family="Sora, 'Plus Jakarta Sans', system-ui, sans-serif" font-size="11.5" fill="#667085">A deed records a game relationship with a zone. It is never land, never required, and not purchasable today.</text>
</svg>